<svg width="68" height="68" viewBox="0 0 68 68" fill="none" xmlns="http://www.w3.org/2000/svg">
<g id="fluent:arrow-growth-20-filled">
<path id="Vector" d="M47.6 9.35005C47.6 8.67375 47.8686 8.02514 48.3468 7.54693C48.8251 7.06871 49.4737 6.80005 50.15 6.80005H58.65C59.3263 6.80005 59.9749 7.06871 60.4531 7.54693C60.9313 8.02514 61.2 8.67375 61.2 9.35005V17.85C61.2 18.5264 60.9313 19.175 60.4531 19.6532C59.9749 20.1314 59.3263 20.4 58.65 20.4C57.9737 20.4 57.3251 20.1314 56.8468 19.6532C56.3686 19.175 56.1 18.5264 56.1 17.85V15.504L40.902 30.702C40.4238 31.1796 39.7757 31.4478 39.1 31.4478C38.4242 31.4478 37.7761 31.1796 37.298 30.702L28.9 22.304L14.552 36.652C14.3185 36.9026 14.037 37.1035 13.7242 37.2429C13.4114 37.3823 13.0737 37.4572 12.7313 37.4633C12.3889 37.4693 12.0488 37.4063 11.7313 37.2781C11.4138 37.1498 11.1254 36.9589 10.8832 36.7168C10.6411 36.4746 10.4502 36.1862 10.3219 35.8687C10.1937 35.5512 10.1307 35.2111 10.1367 34.8687C10.1428 34.5263 10.2177 34.1886 10.3571 33.8758C10.4965 33.563 10.6974 33.2815 10.948 33.048L27.098 16.898C27.5761 16.4205 28.2242 16.1523 28.9 16.1523C29.5757 16.1523 30.2238 16.4205 30.702 16.898L39.1 25.296L52.496 11.9H50.15C49.4737 11.9 48.8251 11.6314 48.3468 11.1532C47.8686 10.675 47.6 10.0264 47.6 9.35005ZM12.75 47.6001C13.4263 47.6 14.0749 47.8687 14.5531 48.3469C15.0313 48.8251 15.3 49.4737 15.3 50.1501V58.6501C15.3 59.3264 15.0313 59.975 14.5531 60.4532C14.0749 60.9314 13.4263 61.2001 12.75 61.2001C12.0737 61.2001 11.4251 60.9314 10.9468 60.4532C10.4686 59.975 10.2 59.3264 10.2 58.6501V50.1501C10.2 49.4737 10.4686 48.8251 10.9468 48.3469C11.4251 47.8687 12.0737 47.6001 12.75 47.6001ZM28.9 39.9501C28.9 39.2737 28.6313 38.6251 28.1531 38.1469C27.6749 37.6687 27.0263 37.4 26.35 37.4C25.6737 37.4 25.0251 37.6687 24.5468 38.1469C24.0686 38.6251 23.8 39.2737 23.8 39.9501V58.6501C23.8 59.3264 24.0686 59.975 24.5468 60.4532C25.0251 60.9314 25.6737 61.2001 26.35 61.2001C27.0263 61.2001 27.6749 60.9314 28.1531 60.4532C28.6313 59.975 28.9 59.3264 28.9 58.6501V39.9501ZM39.95 44.2001C40.6263 44.2001 41.2749 44.4687 41.7531 44.9469C42.2313 45.4251 42.5 46.0737 42.5 46.75V58.6501C42.5 59.3264 42.2313 59.975 41.7531 60.4532C41.2749 60.9314 40.6263 61.2001 39.95 61.2001C39.2737 61.2001 38.6251 60.9314 38.1468 60.4532C37.6686 59.975 37.4 59.3264 37.4 58.6501V46.75C37.4 46.0737 37.6686 45.4251 38.1468 44.9469C38.6251 44.4687 39.2737 44.2001 39.95 44.2001ZM56.1 33.15C56.1 32.4737 55.8313 31.8251 55.3531 31.3469C54.8749 30.8687 54.2263 30.6 53.55 30.6C52.8737 30.6 52.2251 30.8687 51.7468 31.3469C51.2686 31.8251 51 32.4737 51 33.15V58.6501C51 59.3264 51.2686 59.975 51.7468 60.4532C52.2251 60.9314 52.8737 61.2001 53.55 61.2001C54.2263 61.2001 54.8749 60.9314 55.3531 60.4532C55.8313 59.975 56.1 59.3264 56.1 58.6501V33.15Z" fill="#041A6F"/>
</g>
</svg>
