<svg width="68" height="68" viewBox="0 0 68 68" fill="none" xmlns="http://www.w3.org/2000/svg">
<g id="grommet-icons:technology">
<path id="Vector" d="M28.3333 14.1667L34 8.5M22.6667 45.3333L45.3333 22.6667M34 59.5L39.6667 53.8333M46.75 53.8333C48.6286 53.8333 50.4303 53.0871 51.7587 51.7587C53.0871 50.4303 53.8333 48.6286 53.8333 46.75C53.8333 44.8714 53.0871 43.0697 51.7587 41.7413C50.4303 40.4129 48.6286 39.6667 46.75 39.6667C44.8714 39.6667 43.0697 40.4129 41.7413 41.7413C40.4129 43.0697 39.6667 44.8714 39.6667 46.75C39.6667 48.6286 40.4129 50.4303 41.7413 51.7587C43.0697 53.0871 44.8714 53.8333 46.75 53.8333ZM21.25 28.3333C23.1286 28.3333 24.9303 27.5871 26.2587 26.2587C27.5871 24.9303 28.3333 23.1286 28.3333 21.25C28.3333 19.3714 27.5871 17.5697 26.2587 16.2413C24.9303 14.9129 23.1286 14.1667 21.25 14.1667C19.3714 14.1667 17.5697 14.9129 16.2413 16.2413C14.9129 17.5697 14.1667 19.3714 14.1667 21.25C14.1667 23.1286 14.9129 24.9303 16.2413 26.2587C17.5697 27.5871 19.3714 28.3333 21.25 28.3333ZM15.5833 59.5C17.4619 59.5 19.2636 58.7537 20.592 57.4253C21.9204 56.097 22.6667 54.2953 22.6667 52.4167C22.6667 50.538 21.9204 48.7364 20.592 47.408C19.2636 46.0796 17.4619 45.3333 15.5833 45.3333C13.7047 45.3333 11.903 46.0796 10.5747 47.408C9.24628 48.7364 8.5 50.538 8.5 52.4167C8.5 54.2953 9.24628 56.097 10.5747 57.4253C11.903 58.7537 13.7047 59.5 15.5833 59.5ZM52.4167 22.6667C54.2953 22.6667 56.097 21.9204 57.4253 20.592C58.7537 19.2636 59.5 17.4619 59.5 15.5833C59.5 13.7047 58.7537 11.903 57.4253 10.5747C56.097 9.24628 54.2953 8.5 52.4167 8.5C50.538 8.5 48.7364 9.24628 47.408 10.5747C46.0796 11.903 45.3333 13.7047 45.3333 15.5833C45.3333 17.4619 46.0796 19.2636 47.408 20.592C48.7364 21.9204 50.538 22.6667 52.4167 22.6667Z" stroke="#041A6F" stroke-width="2" stroke-linecap="round" stroke-linejoin="round"/>
</g>
</svg>
