<svg width="68" height="68" viewBox="0 0 68 68" fill="none" xmlns="http://www.w3.org/2000/svg">
<g id="fluent:people-star-24-filled">
<path id="Vector" d="M22.6667 31.1667C25.6725 31.1667 28.5552 29.9726 30.6806 27.8472C32.806 25.7218 34.0001 22.8391 34.0001 19.8333C34.0001 16.8275 32.806 13.9449 30.6806 11.8195C28.5552 9.69404 25.6725 8.5 22.6667 8.5C19.661 8.5 16.7783 9.69404 14.6529 11.8195C12.5275 13.9449 11.3334 16.8275 11.3334 19.8333C11.3334 22.8391 12.5275 25.7218 14.6529 27.8472C16.7783 29.9726 19.661 31.1667 22.6667 31.1667ZM48.1667 31.1667C50.4211 31.1667 52.5831 30.2711 54.1772 28.6771C55.7712 27.083 56.6667 24.921 56.6667 22.6667C56.6667 20.4123 55.7712 18.2503 54.1772 16.6563C52.5831 15.0622 50.4211 14.1667 48.1667 14.1667C45.9124 14.1667 43.7504 15.0622 42.1563 16.6563C40.5623 18.2503 39.6667 20.4123 39.6667 22.6667C39.6667 24.921 40.5623 27.083 42.1563 28.6771C43.7504 30.2711 45.9124 31.1667 48.1667 31.1667ZM12.0417 36.8333C10.351 36.8333 8.72949 37.505 7.53394 38.7005C6.3384 39.8961 5.66675 41.5176 5.66675 43.2083V43.9167C5.66675 43.9167 5.66675 56.6667 22.6667 56.6667C26.6051 56.6667 29.6311 55.9838 31.9544 54.9298C31.4304 53.1961 31.165 51.3945 31.1667 49.5833C31.1667 44.8885 32.9234 40.6045 35.8134 37.3518C35.017 37.0088 34.1589 36.8323 33.2917 36.8333H12.0417ZM65.1667 49.5833C65.1667 53.7163 63.5249 57.68 60.6025 60.6024C57.6801 63.5249 53.7164 65.1667 49.5834 65.1667C45.4505 65.1667 41.4868 63.5249 38.5643 60.6024C35.6419 57.68 34.0001 53.7163 34.0001 49.5833C34.0001 45.4504 35.6419 41.4867 38.5643 38.5643C41.4868 35.6418 45.4505 34 49.5834 34C53.7164 34 57.6801 35.6418 60.6025 38.5643C63.5249 41.4867 65.1667 45.4504 65.1667 49.5833ZM51.1559 40.8567C51.0587 40.5146 50.8525 40.2136 50.5687 39.9993C50.285 39.7849 49.939 39.669 49.5834 39.669C49.2278 39.669 48.8819 39.7849 48.5981 39.9993C48.3143 40.2136 48.1082 40.5146 48.0109 40.8567L46.4327 45.9227H41.3242C39.7206 45.9227 39.0576 48.059 40.3524 49.0393L44.4834 52.1702L42.9052 57.2333C42.4094 58.8228 44.1547 60.146 45.4524 59.1628L49.5834 56.0348L53.7144 59.1628C55.0121 60.146 56.7574 58.8228 56.2616 57.2362L54.6834 52.1702L58.8144 49.0422C60.1121 48.059 59.4463 45.9227 57.8426 45.9227H52.7341L51.1559 40.8567Z" fill="#041A6F"/>
</g>
</svg>
