<svg width="68" height="68" viewBox="0 0 68 68" fill="none" xmlns="http://www.w3.org/2000/svg">
<g id="solar:money-bag-linear">
<g id="Group">
<path id="Vector" d="M45.3333 17C45.3333 11.6563 45.3333 8.98729 43.673 7.32696C42.0126 5.66663 39.3436 5.66663 34 5.66663C28.6563 5.66663 25.9873 5.66663 24.327 7.32696C22.6666 8.98729 22.6666 11.6563 22.6666 17M5.66663 39.6666C5.66663 28.9821 5.66663 23.6385 8.98729 20.3206C12.3051 17 17.6488 17 28.3333 17H39.6666C50.3511 17 55.6948 17 59.0126 20.3206C62.3333 23.6385 62.3333 28.9821 62.3333 39.6666C62.3333 50.3511 62.3333 55.6948 59.0126 59.0126C55.6948 62.3333 50.3511 62.3333 39.6666 62.3333H28.3333C17.6488 62.3333 12.3051 62.3333 8.98729 59.0126C5.66663 55.6948 5.66663 50.3511 5.66663 39.6666Z" stroke="#041A6F" stroke-width="4.25"/>
<path id="Vector_2" d="M34 49.1102C37.1309 49.1102 39.6667 46.9965 39.6667 44.3899C39.6667 41.7832 37.1309 39.6667 34 39.6667C30.8692 39.6667 28.3334 37.553 28.3334 34.9435C28.3334 32.3369 30.8692 30.2232 34 30.2232M34 49.1102C30.8692 49.1102 28.3334 46.9965 28.3334 44.3899M34 49.1102V51M34 30.2232V28.3334M34 30.2232C37.1309 30.2232 39.6667 32.3369 39.6667 34.9435" stroke="#041A6F" stroke-width="4.25" stroke-linecap="round"/>
</g>
</g>
</svg>
